{"glyphs":{":":{"x_min":0,"x_max":195,"ha":195,"o":"m 83 440 q 84 460 84 472 q 84 483 85 493 q 103 493 112 493 q 123 493 140 493 q 139 479 138 465 q 138 452 137 440 q 120 440 110 440 q 100 440 83 440 z m 59 0 q 60 20 60 32 q 61 43 61 53 q 79 53 88 53 q 99 53 116 53 q 115 39 114 25 q 114 12 113 0 q 96 0 86 0 q 76 0 59 0 z"},"$":{"x_min":0,"x_max":536,"ha":536,"o":"m 89 77 q 124 59 144 50 q 165 41 189 36 q 213 30 238 30 q 278 30 311 44 q 343 57 364 88 q 384 119 384 155 q 384 181 374 201 q 364 221 346 240 q 328 259 246 328 q 205 363 185 381 q 166 398 148 423 q 130 448 122 472 q 114 496 114 521 q 114 548 124 573 q 133 598 153 619 q 173 639 197 649 q 221 660 266 667 q 267 685 267 702 q 267 720 266 744 q 279 743 286 743 q 293 743 306 744 q 301 699 300 667 q 333 665 355 661 q 376 657 404 648 q 405 626 408 606 q 368 623 341 628 q 313 634 287 634 q 221 634 188 600 q 154 566 154 521 q 154 503 159 484 q 165 466 180 444 q 196 422 222 398 q 249 374 274 352 l 307 323 q 333 301 356 279 q 379 256 392 239 q 404 222 410 209 q 416 196 418 181 q 421 167 421 152 q 421 131 415 111 q 409 90 397 72 q 385 54 368 40 q 351 25 331 17 q 311 8 272 0 q 272 -19 272 -40 q 272 -47 273 -78 q 260 -77 252 -77 q 245 -77 232 -78 l 235 -48 q 236 -38 238 -2 q 191 1 160 9 q 130 16 91 33 q 91 55 89 77 z"},"?":{"x_min":0,"x_max":445,"ha":445,"o":"m 165 102 l 167 166 q 168 198 171 222 q 173 246 176 257 q 179 268 184 278 q 189 287 206 309 q 223 331 251 363 q 279 395 303 423 q 327 451 339 473 q 351 494 354 509 q 358 523 358 538 q 358 571 338 599 q 318 626 280 638 q 241 650 194 650 q 162 650 128 645 q 95 641 32 626 q 37 647 39 662 q 80 669 122 673 q 165 677 194 677 q 252 677 299 662 q 346 647 369 613 q 393 579 393 540 q 393 523 388 505 q 384 486 370 460 q 356 434 331 403 q 306 372 276 341 q 246 309 230 289 q 222 278 217 268 q 211 257 208 243 q 205 229 203 198 l 197 102 q 189 103 181 103 q 172 103 165 102 z m 151 0 q 152 20 152 32 q 152 43 153 53 q 170 53 181 53 q 191 53 208 53 q 207 39 206 25 q 206 12 205 0 q 188 0 178 0 q 167 0 151 0 z"},"<":{"x_min":0,"x_max":504,"ha":504,"o":"m 468 541 l 468 506 l 72 334 l 468 162 l 468 128 l 35 318 l 35 350 z"},"'":{"x_min":0,"x_max":158,"ha":158,"o":"m 70 513 q 71 548 71 590 q 71 624 70 667 q 83 666 92 666 q 102 666 114 667 q 105 585 101 513 q 93 514 85 514 q 78 514 70 513 z"},"=":{"x_min":0,"x_max":536,"ha":536,"o":"m 70 413 q 159 410 281 410 q 402 410 493 413 q 490 396 490 380 q 402 383 279 383 q 157 383 67 380 q 70 399 70 413 z m 61 306 q 150 303 272 303 q 393 303 484 306 q 481 289 481 274 q 393 277 270 277 q 149 277 59 274 q 61 292 61 306 z"},"a":{"x_min":0,"x_max":499,"ha":499,"o":"m 89 441 q 92 458 94 479 q 144 493 181 498 q 217 503 255 503 q 298 503 336 496 q 373 488 397 470 q 420 453 428 430 q 436 407 436 383 q 436 358 434 321 q 432 284 429 241 q 426 198 424 134 q 421 69 421 41 l 421 0 q 409 0 401 0 q 393 0 380 0 q 387 75 390 121 q 393 167 394 221 q 396 274 399 321 q 384 308 376 302 q 368 296 358 291 q 349 286 335 281 q 322 276 311 272 q 299 269 256 257 q 213 245 194 239 q 152 226 129 213 q 104 200 88 184 q 73 170 66 154 q 59 136 59 115 q 59 83 78 60 q 97 36 126 27 q 155 17 196 17 q 216 17 235 19 q 254 21 271 25 q 288 29 320 39 q 315 21 312 2 q 273 -6 248 -8 q 224 -10 202 -10 q 161 -10 126 -4 q 91 2 68 21 q 44 40 33 64 q 22 88 22 115 q 22 136 29 155 q 36 174 50 192 q 62 207 81 219 q 104 235 132 246 q 164 258 201 269 q 211 272 282 290 q 313 298 342 311 q 370 323 386 345 q 401 368 401 391 q 401 407 394 423 q 387 438 368 452 q 349 465 321 471 q 293 476 263 476 q 227 476 196 471 q 165 467 143 461 q 122 455 89 441 z"},"L":{"x_min":0,"x_max":451,"ha":451,"o":"m 72 0 l 82 155 l 95 505 l 98 667 q 110 666 119 666 q 129 666 141 667 l 124 286 l 114 31 l 214 30 q 322 30 362 31 q 403 32 441 35 q 439 15 439 0 q 336 0 265 0 z"},"3":{"x_min":0,"x_max":536,"ha":536,"o":"m 52 15 q 51 35 48 55 q 100 34 142 26 q 183 19 221 19 q 278 19 325 38 q 372 58 401 97 q 431 137 431 189 q 431 210 425 231 q 418 252 405 270 q 392 288 374 300 q 355 312 334 319 q 312 325 290 328 q 267 331 233 331 q 209 331 172 329 q 174 344 174 355 l 174 361 q 194 357 216 357 q 271 357 318 375 q 366 393 393 432 q 419 471 419 517 q 419 547 407 573 q 395 600 372 617 q 350 634 318 642 q 286 649 249 649 q 179 649 102 626 q 104 642 106 661 q 157 670 188 674 q 219 677 246 677 q 312 677 361 659 q 409 642 433 604 q 457 567 457 520 q 457 499 451 477 q 446 456 436 435 q 426 415 415 403 q 405 391 391 381 q 378 372 360 364 q 343 356 304 346 q 326 346 358 338 q 391 331 417 309 q 442 288 455 256 q 467 224 467 188 q 467 143 447 103 q 427 63 391 38 q 355 12 309 1 q 264 -10 214 -10 q 179 -10 142 -5 q 105 0 52 15 z"},";":{"x_min":0,"x_max":195,"ha":195,"o":"m 83 440 q 83 460 84 472 q 84 483 85 493 q 102 493 112 493 q 123 493 140 493 q 138 479 138 465 q 138 452 137 440 q 120 440 109 440 q 100 440 83 440 z m 15 -100 q 48 -8 66 53 q 83 52 99 52 q 116 52 132 53 q 120 31 104 6 q 88 -19 81 -32 l 42 -100 q 34 -99 29 -99 q 23 -99 15 -100 z"},"J":{"x_min":0,"x_max":376,"ha":376,"o":"m -17 3 q -19 22 -21 41 q 28 28 53 24 q 77 20 101 20 q 130 20 156 27 q 178 33 194 43 q 208 51 216 62 q 228 76 237 96 q 246 116 249 140 q 252 170 257 290 l 263 478 l 267 667 q 279 666 289 666 q 298 666 311 667 q 304 565 299 470 l 291 261 q 286 152 281 122 q 275 92 268 76 q 259 58 246 43 q 231 28 212 17 q 190 3 167 -2 q 137 -10 100 -10 q 81 -10 52 -7 q 22 -5 -17 3 z"},"V":{"x_min":0,"x_max":635,"ha":635,"o":"m 268 0 l 250 55 q 246 72 240 88 q 232 111 212 167 l 32 667 q 44 666 54 666 q 63 666 76 667 l 104 576 l 298 30 l 563 552 l 588 604 q 600 627 617 667 q 629 666 640 666 q 651 666 663 667 q 619 587 548 448 l 420 199 q 363 88 323 0 q 306 0 295 0 q 285 0 268 0 z"},"\"":{"x_min":0,"x_max":243,"ha":243,"o":"m 70 513 q 71 548 71 590 q 71 624 70 667 q 83 666 92 666 q 102 666 114 667 q 105 585 101 513 q 93 514 85 514 q 78 514 70 513 z m 156 513 q 157 548 157 590 q 157 624 155 667 q 168 666 178 666 q 188 666 200 667 q 190 585 187 513 q 179 514 171 514 q 163 514 156 513 z"},"7":{"x_min":0,"x_max":536,"ha":536,"o":"m 125 0 l 254 271 l 426 638 q 339 639 312 639 q 177 639 83 634 q 85 649 86 667 q 165 666 280 666 l 423 667 l 458 667 q 457 652 457 636 l 457 630 l 204 83 l 169 0 q 157 0 147 0 q 137 0 125 0 z"},"S":{"x_min":0,"x_max":442,"ha":442,"o":"m 37 21 q 37 40 34 64 q 126 20 203 20 q 246 20 281 34 q 316 48 336 76 q 355 104 355 141 q 355 159 350 175 q 345 191 333 208 q 321 225 292 252 q 263 278 196 334 l 157 367 q 137 384 119 403 q 100 422 88 439 q 76 455 70 468 q 63 481 60 497 q 57 512 57 529 q 57 568 78 603 q 100 637 142 657 q 185 677 250 677 q 295 677 366 664 q 366 645 370 623 q 325 637 295 642 q 266 646 239 646 q 190 646 159 631 q 128 615 111 588 q 94 562 94 532 q 94 517 98 502 q 103 487 113 471 q 123 456 139 438 q 156 419 182 396 q 209 373 253 336 q 297 299 315 284 q 332 269 348 251 q 363 233 373 216 q 383 199 387 180 q 392 162 392 141 q 392 95 369 61 q 346 26 301 8 q 255 -10 199 -10 q 163 -10 129 -4 q 95 1 37 21 z"},"}":{"x_min":0,"x_max":383,"ha":383,"o":"m 203 224 q 188 231 180 237 q 172 243 165 255 q 158 268 155 286 q 152 305 152 327 q 152 336 153 354 q 153 372 154 393 l 158 453 q 160 493 161 513 q 161 534 161 547 q 161 574 157 590 q 153 605 142 616 q 131 627 115 633 q 99 638 73 640 q 73 652 70 667 q 92 667 106 665 q 120 664 135 657 q 151 651 162 642 q 174 632 181 620 q 188 607 192 589 q 196 570 196 547 q 196 534 194 497 l 188 399 q 185 340 185 322 q 185 302 189 285 q 193 268 208 255 q 223 242 242 236 q 240 223 240 212 q 227 209 217 203 q 205 195 198 188 q 191 180 188 170 q 182 157 180 138 q 178 124 177 72 l 176 -18 q 175 -64 173 -89 q 170 -127 164 -147 q 157 -167 146 -180 q 134 -194 118 -202 q 103 -210 80 -214 q 68 -216 41 -217 q 43 -204 43 -190 q 69 -189 87 -183 q 104 -177 115 -165 q 126 -153 131 -140 q 136 -126 139 -91 q 142 -56 142 13 q 142 46 143 86 q 145 125 147 143 q 150 161 155 173 q 159 186 166 195 q 173 205 180 211 q 188 217 203 224 z"},"Z":{"x_min":0,"x_max":535,"ha":535,"o":"m 26 0 q 28 24 28 45 l 467 636 l 436 637 l 275 637 q 204 637 162 635 q 119 634 68 631 q 69 646 69 661 l 69 667 q 153 666 297 666 l 432 667 l 503 667 q 501 645 501 622 l 99 79 q 88 64 64 30 q 158 29 283 29 q 353 29 389 30 q 426 31 474 34 q 473 20 473 5 l 473 0 q 386 0 262 0 q 91 0 26 0 z"},"x":{"x_min":0,"x_max":416,"ha":416,"o":"m -15 0 l 84 133 l 183 269 l 41 493 q 54 493 62 493 q 71 493 83 493 q 128 415 206 298 q 299 422 345 493 q 358 493 367 493 q 377 493 389 493 l 222 270 l 397 0 q 384 0 374 0 q 363 0 351 0 q 333 32 322 51 q 304 82 266 141 q 229 200 201 241 q 114 125 30 0 q 18 0 8 0 q -2 0 -15 0 z"},")":{"x_min":0,"x_max":295,"ha":295,"o":"m 105 667 q 113 666 120 666 q 127 666 135 667 q 150 587 157 545 q 164 502 169 459 q 173 417 176 377 q 178 337 178 299 q 178 154 151 20 q 125 -114 87 -217 q 80 -216 72 -216 q 63 -216 56 -217 q 81 -139 92 -97 q 103 -55 112 -6 q 121 42 128 98 q 135 153 138 209 q 142 265 142 318 q 142 365 139 412 q 136 458 131 501 q 126 543 122 572 q 117 601 105 667 z"},"&":{"x_min":0,"x_max":655,"ha":655,"o":"m 530 271 q 540 271 547 271 q 555 271 564 271 q 563 225 552 181 q 541 138 520 101 q 551 73 580 49 q 609 24 637 0 q 625 0 611 0 q 598 0 586 0 l 501 75 q 484 58 472 47 q 459 37 440 26 q 420 15 396 7 q 372 -1 343 -5 q 313 -10 281 -10 q 213 -10 163 12 q 112 34 85 73 q 59 112 59 159 q 59 184 65 208 q 72 232 90 256 q 107 279 133 299 q 159 319 225 359 q 202 391 190 409 q 179 428 170 449 q 161 470 156 490 q 152 510 152 528 q 152 556 164 584 q 175 612 199 634 q 223 656 256 666 q 288 677 323 677 q 348 677 372 672 q 396 667 427 653 q 426 644 426 636 q 426 628 427 618 q 382 650 325 650 q 284 650 251 635 q 218 619 201 589 q 185 559 185 527 q 185 495 198 463 q 211 432 253 376 q 294 321 361 251 q 427 182 496 123 q 506 143 510 155 q 515 166 519 184 q 523 203 526 223 q 529 244 530 271 z m 477 96 q 354 205 241 338 q 192 309 165 289 q 138 268 121 245 q 104 223 97 203 q 91 183 91 162 q 91 120 116 87 q 140 53 185 35 q 229 17 288 17 q 315 17 340 21 q 366 25 387 33 q 409 40 426 50 q 443 60 453 70 q 463 80 477 96 z"},"_":{"x_min":0,"x_max":504,"ha":504,"o":"m 2 -79 l 502 -79 l 502 -111 l 2 -111 z"},"v":{"x_min":0,"x_max":450,"ha":450,"o":"m 191 0 q 164 80 127 177 l 9 493 q 21 493 31 493 q 41 493 53 493 l 65 452 q 69 440 74 428 l 217 28 l 401 452 l 417 493 q 430 493 439 493 q 449 493 461 493 l 264 62 l 238 0 q 226 0 214 0 q 203 0 191 0 z"},"O":{"x_min":0,"x_max":778,"ha":778,"o":"m 406 677 q 476 677 538 656 q 600 635 646 587 q 693 540 713 479 q 732 417 732 349 q 732 273 710 203 q 688 133 642 86 q 597 39 529 14 q 460 -10 386 -10 q 314 -10 248 12 q 182 35 138 79 q 93 124 73 186 q 52 248 52 316 q 52 393 77 465 q 103 537 151 584 q 199 632 266 654 q 333 677 406 677 z m 404 646 q 337 646 277 626 q 218 605 174 558 q 130 512 109 448 q 89 385 89 316 q 89 251 110 192 q 132 132 173 93 q 215 54 271 37 q 327 20 389 20 q 454 20 512 39 q 571 58 614 103 q 656 147 676 209 q 696 271 696 341 q 696 407 677 466 q 659 526 619 568 q 578 609 522 628 q 467 646 404 646 z"},"(":{"x_min":0,"x_max":297,"ha":297,"o":"m 136 -217 l 122 -150 q 115 -118 110 -86 q 104 -54 100 -16 q 96 23 94 62 q 92 102 92 143 q 92 304 126 455 q 160 605 182 667 q 190 666 197 666 q 204 666 212 667 l 191 595 q 182 560 172 520 q 163 479 154 432 q 146 385 140 335 q 134 286 132 236 q 129 187 129 138 q 129 83 131 38 q 133 -8 138 -50 q 143 -91 148 -118 q 153 -145 167 -217 q 160 -216 152 -216 q 144 -216 136 -217 z"},"C":{"x_min":0,"x_max":610,"ha":610,"o":"m 564 52 q 560 35 558 12 q 508 0 464 -5 q 420 -10 386 -10 q 314 -10 250 13 q 187 36 141 81 q 95 126 73 188 q 52 250 52 318 q 52 395 77 466 q 102 537 150 584 q 199 631 266 654 q 334 677 411 677 q 437 677 467 674 q 497 672 516 669 q 535 666 567 659 q 568 639 572 617 q 518 635 479 641 q 440 646 404 646 q 341 646 283 627 q 225 607 181 564 q 136 521 113 457 q 89 394 89 326 q 89 260 108 201 q 128 142 168 102 q 208 62 263 41 q 318 20 384 20 q 464 20 564 52 z"},"W":{"x_min":0,"x_max":985,"ha":985,"o":"m 268 0 l 105 480 l 63 601 q 56 623 39 667 q 51 666 62 666 q 75 666 87 667 l 112 579 l 293 38 l 318 84 l 491 430 q 464 511 445 564 l 409 667 q 422 666 429 666 q 438 666 450 667 q 478 568 512 471 l 597 667 q 609 666 620 666 q 630 666 642 667 l 581 541 q 555 489 528 428 l 535 403 l 646 80 l 662 35 l 692 94 q 701 112 725 165 l 934 610 q 943 631 958 667 q 971 666 980 666 q 990 666 1003 667 q 976 614 895 444 l 769 182 q 725 90 685 0 q 673 0 660 0 q 646 0 634 0 l 580 165 l 506 384 l 493 360 q 488 351 470 313 l 314 0 q 302 0 291 0 q 279 0 268 0 z"},"A":{"x_min":0,"x_max":644,"ha":644,"o":"m -16 0 l 147 321 l 292 605 l 321 667 q 333 666 348 666 q 362 666 374 667 l 469 398 l 613 0 q 600 0 591 0 q 581 0 569 0 q 555 47 518 155 q 480 263 458 318 l 183 318 l 29 0 q 17 0 6 0 q -4 0 -16 0 z m 198 350 l 448 350 l 344 637 z"},"f":{"x_min":0,"x_max":250,"ha":250,"o":"m 70 0 l 79 173 l 87 466 l 25 466 q 27 479 28 493 l 88 493 q 91 564 92 576 q 95 602 101 617 q 107 632 116 643 q 125 653 141 662 q 156 671 177 676 q 197 681 224 681 q 240 681 256 679 q 272 677 301 671 q 302 657 305 638 q 259 654 222 654 q 201 654 184 648 q 167 643 157 635 q 146 627 139 615 q 132 603 129 588 q 125 573 124 544 q 124 539 123 493 l 268 493 q 266 480 266 466 l 122 466 l 110 0 q 98 0 90 0 q 83 0 70 0 z"},"Q":{"x_min":0,"x_max":778,"ha":778,"o":"m 722 59 q 718 39 715 16 q 629 5 579 0 q 530 -5 483 -8 q 437 -10 407 -10 q 329 -10 260 10 q 191 30 142 76 q 94 123 73 183 q 52 244 52 314 q 52 392 76 463 q 101 534 149 582 q 197 629 264 653 q 331 677 405 677 q 479 677 544 652 q 610 627 653 578 q 696 529 714 469 q 732 410 732 342 q 732 293 723 248 q 713 203 696 166 q 679 129 652 99 q 630 74 603 54 q 584 41 555 24 q 592 27 616 31 q 641 35 664 41 q 688 48 722 59 z m 404 646 q 341 646 284 627 q 228 608 183 566 q 139 523 114 458 q 89 393 89 321 q 89 258 105 204 q 122 150 163 105 q 204 61 262 41 q 320 20 385 20 q 452 20 512 41 q 572 62 614 107 q 657 151 677 213 q 696 274 696 344 q 696 406 680 460 q 665 515 627 559 q 590 603 531 625 q 471 646 404 646 z"},"w":{"x_min":0,"x_max":803,"ha":803,"o":"m 188 0 l 165 68 l 9 493 q 21 493 29 493 q 36 493 49 493 l 68 433 l 145 218 l 198 75 q 205 58 218 25 l 265 145 l 395 493 q 407 493 417 493 q 428 493 440 493 l 570 25 q 693 292 774 493 q 788 493 794 493 q 801 493 814 493 l 624 74 l 593 0 q 576 0 566 0 q 556 0 539 0 l 516 91 l 429 407 q 425 421 413 458 l 397 419 l 255 37 q 252 30 243 0 q 226 0 215 0 q 204 0 188 0 z"},"-":{"x_min":0,"x_max":241,"ha":241,"o":"m -1 239 q 1 259 1 274 q 54 271 118 271 q 180 271 236 274 q 233 254 233 239 q 180 242 115 242 q 54 242 -1 239 z"},"E":{"x_min":0,"x_max":524,"ha":524,"o":"m 73 0 q 82 132 90 342 q 97 551 97 667 q 206 666 301 666 l 479 667 q 477 647 477 632 l 438 635 q 423 636 385 636 q 348 637 312 637 q 196 637 136 636 l 126 356 q 200 355 261 355 q 334 355 442 356 q 440 342 439 324 l 255 326 q 223 326 125 324 l 114 31 l 254 30 q 337 30 369 31 q 401 32 456 35 q 454 15 454 0 q 336 0 282 0 z"},"s":{"x_min":0,"x_max":359,"ha":359,"o":"m 29 9 q 28 33 25 51 q 64 34 98 27 q 132 20 161 20 q 198 20 225 31 q 251 42 265 62 q 279 83 279 106 q 279 117 277 126 q 274 136 270 145 q 265 155 259 163 q 252 171 241 181 q 230 191 216 204 q 201 217 170 243 q 139 269 118 287 q 98 306 85 325 q 71 345 66 361 q 60 377 60 394 q 60 422 78 448 q 96 475 129 489 q 163 503 214 503 q 257 503 311 492 q 311 471 313 451 q 282 464 258 469 q 233 473 208 473 q 176 473 149 464 q 122 454 109 436 q 95 417 95 396 q 95 384 98 374 q 101 364 107 353 q 114 343 124 332 q 134 321 150 306 q 166 292 196 267 q 226 242 240 229 q 255 216 265 205 q 276 194 285 181 q 295 168 301 156 q 307 144 310 132 q 312 119 312 106 q 312 76 294 48 q 276 21 242 5 q 208 -10 159 -10 q 141 -10 114 -7 q 87 -4 71 -1 q 54 2 29 9 z"},">":{"x_min":0,"x_max":504,"ha":504,"o":"m 36 128 l 36 162 l 432 334 l 36 506 l 36 541 l 469 350 l 469 318 z"},"l":{"x_min":0,"x_max":187,"ha":187,"o":"m 62 0 q 84 407 88 667 q 101 666 108 666 q 116 666 128 667 l 116 429 l 102 0 q 89 0 82 0 q 75 0 62 0 z"},"8":{"x_min":0,"x_max":536,"ha":536,"o":"m 191 339 q 165 349 151 357 q 137 365 122 379 q 108 394 98 413 q 88 431 84 450 q 81 469 81 488 q 81 542 107 586 q 134 630 182 654 q 229 677 290 677 q 328 677 363 666 q 398 655 423 634 q 449 612 462 581 q 476 549 476 510 q 476 487 471 466 q 467 444 455 424 q 444 404 428 388 q 413 373 398 363 q 383 354 352 341 q 387 333 403 325 q 419 317 435 303 q 451 290 461 272 q 472 255 478 232 q 483 210 483 185 q 483 140 467 103 q 450 66 420 41 q 390 15 347 2 q 304 -10 258 -10 q 193 -10 143 13 q 93 36 69 76 q 45 117 45 167 q 45 190 51 213 q 56 236 69 257 q 82 278 98 293 q 115 308 134 317 q 152 327 191 339 z m 285 649 q 211 649 165 604 q 120 560 120 487 q 120 443 139 413 q 158 382 193 366 q 228 351 270 351 q 317 351 355 371 q 394 391 416 427 q 438 463 438 511 q 438 558 415 590 q 392 622 358 636 q 324 649 285 649 z m 271 324 q 208 324 168 304 q 128 285 107 249 q 85 214 85 170 q 85 128 105 93 q 126 57 170 37 q 214 18 262 18 q 312 18 356 39 q 400 61 423 100 q 445 140 445 186 q 445 250 402 287 q 360 324 271 324 z"},"\\":{"x_min":0,"x_max":402,"ha":402,"o":"m 459 -217 q 447 -216 438 -216 q 429 -216 416 -217 l 368 -103 l 27 667 q 40 666 48 666 q 57 666 70 667 l 102 589 l 347 33 z"},"e":{"x_min":0,"x_max":504,"ha":504,"o":"m 431 47 q 427 29 425 11 q 384 -1 352 -6 q 320 -10 286 -10 q 228 -10 182 6 q 137 21 105 58 q 73 95 59 141 q 45 187 45 239 q 45 307 69 366 q 92 425 146 464 q 200 503 279 503 q 334 503 378 483 q 423 463 448 417 q 472 371 472 308 q 472 296 471 286 l 85 285 q 83 253 83 237 q 83 191 96 147 q 110 104 137 75 q 165 45 204 31 q 242 17 285 17 q 351 17 431 47 z m 89 312 l 437 312 q 436 345 433 363 q 429 381 420 400 q 411 419 398 433 q 385 447 367 457 q 350 466 329 471 q 307 476 284 476 q 258 476 233 470 q 208 464 188 454 q 167 444 149 428 q 131 412 120 394 q 108 375 102 358 q 96 341 89 312 z"},"b":{"x_min":0,"x_max":565,"ha":565,"o":"m 64 0 l 68 48 l 83 451 l 88 667 q 101 666 108 666 q 117 666 129 667 q 124 611 122 557 l 119 481 q 172 495 209 499 q 245 503 281 503 q 343 503 389 488 q 435 473 465 437 q 495 401 508 357 q 520 313 520 265 q 520 210 505 159 q 491 108 460 68 q 429 27 385 9 q 341 -10 288 -10 q 257 -10 229 -2 q 201 5 180 18 q 159 30 145 46 q 130 61 122 76 q 114 92 105 118 l 104 0 q 91 0 84 0 q 77 0 64 0 z m 118 446 q 114 347 112 317 q 110 288 110 248 q 110 195 118 155 q 125 114 148 83 q 170 51 206 34 q 242 17 286 17 q 330 17 368 34 q 406 51 431 87 q 457 123 470 172 q 483 220 483 269 q 483 337 457 385 q 431 434 387 455 q 344 476 285 476 q 249 476 209 470 q 170 463 118 446 z"},"%":{"x_min":0,"x_max":755,"ha":755,"o":"m 180 673 q 220 673 249 651 q 277 628 291 584 q 304 541 304 482 q 304 414 287 354 q 270 295 238 270 q 207 244 162 244 q 120 244 91 267 q 62 289 49 332 q 35 375 35 427 q 35 473 43 518 q 50 563 68 600 q 85 637 114 655 q 143 673 180 673 z m 179 647 q 146 647 120 624 q 93 600 79 549 q 65 499 65 427 q 65 372 77 338 q 90 304 113 287 q 135 270 163 270 q 190 270 212 285 q 233 300 248 333 q 262 367 268 407 q 273 447 273 486 q 273 542 262 576 q 250 610 229 629 q 208 647 179 647 z m 153 0 l 428 435 l 572 667 q 581 666 590 666 q 601 666 609 667 l 347 252 l 191 0 q 182 0 172 0 q 161 0 153 0 z m 600 423 q 641 423 669 400 q 697 377 711 334 q 725 291 725 231 q 725 163 707 104 q 690 44 659 19 q 627 -7 583 -7 q 540 -7 511 16 q 483 39 469 81 q 456 124 456 176 q 456 222 463 267 q 471 312 488 349 q 506 386 534 405 q 563 423 600 423 z m 599 396 q 567 396 540 373 q 514 349 500 299 q 485 248 485 176 q 485 121 498 87 q 510 53 533 36 q 556 20 583 20 q 610 20 632 35 q 654 50 668 83 q 683 116 688 156 q 694 196 694 235 q 694 291 682 325 q 671 359 649 378 q 628 396 599 396 z"},"m":{"x_min":0,"x_max":826,"ha":826,"o":"m 59 0 l 64 66 q 65 86 66 106 l 79 432 q 80 468 80 493 q 89 493 99 493 q 108 493 117 493 l 112 391 q 128 420 141 438 q 154 455 177 470 q 199 486 227 495 q 256 503 287 503 q 313 503 337 497 q 361 490 378 479 q 395 469 406 457 q 417 444 423 430 q 429 417 435 393 q 445 412 454 426 q 462 439 477 454 q 492 469 513 480 q 533 491 558 497 q 583 503 610 503 q 650 503 687 490 q 723 476 742 445 q 762 414 762 371 q 762 347 759 299 q 755 250 751 160 q 747 71 747 0 q 734 0 727 0 q 720 0 708 0 q 712 60 716 144 l 724 278 q 727 328 727 361 q 727 378 725 390 q 724 403 719 415 q 713 427 704 438 q 694 448 680 456 q 666 464 646 469 q 627 474 605 474 q 573 474 546 464 q 520 454 498 436 q 477 418 463 394 q 449 369 440 326 q 432 290 429 195 l 424 0 q 411 0 404 0 q 397 0 385 0 q 390 67 392 131 l 398 254 q 401 312 401 351 q 401 387 394 406 q 387 426 372 441 q 356 456 333 465 q 310 473 282 473 q 252 473 224 463 q 197 453 175 435 q 154 417 139 390 q 124 363 115 319 q 107 281 103 184 q 98 76 98 0 q 85 0 78 0 q 71 0 59 0 z"},"#":{"x_min":0,"x_max":536,"ha":536,"o":"m 162 259 l 50 258 q 53 269 56 289 l 167 287 l 183 379 l 71 378 q 74 387 77 409 l 188 407 l 232 667 q 242 666 250 666 q 260 666 270 667 l 223 407 l 285 407 l 348 407 l 392 667 q 401 666 411 666 q 420 666 429 667 l 383 407 l 493 409 q 489 394 487 378 l 378 379 l 362 287 l 472 289 q 468 275 466 258 l 357 259 l 312 0 q 303 0 294 0 q 285 0 275 0 l 322 260 l 271 260 l 197 260 l 152 0 q 143 0 134 0 q 125 0 115 0 z m 218 380 l 202 287 l 264 287 l 286 287 l 307 287 l 327 287 l 343 380 l 249 380 z"},",":{"x_min":0,"x_max":195,"ha":195,"o":"m 15 -100 q 48 -8 66 53 q 83 52 99 52 q 116 52 132 53 q 120 31 104 6 q 88 -19 81 -32 l 42 -100 q 34 -99 29 -99 q 23 -99 15 -100 z"},"n":{"x_min":0,"x_max":570,"ha":570,"o":"m 59 0 l 75 298 l 80 438 q 81 476 81 493 q 93 493 100 493 q 105 493 118 493 l 112 382 q 123 405 130 417 q 137 429 149 442 q 161 456 178 468 q 195 480 219 488 q 242 496 267 500 q 292 503 316 503 q 357 503 396 494 q 435 485 460 462 q 485 439 495 410 q 504 380 504 347 q 504 332 503 302 l 493 80 l 491 0 q 481 0 472 0 q 462 0 453 0 q 458 61 461 117 l 468 242 q 472 311 472 342 q 472 374 462 399 q 453 425 430 442 q 408 458 376 466 q 345 474 312 474 q 266 474 230 461 q 196 449 171 425 q 146 401 129 365 q 117 339 111 292 q 105 250 101 157 q 98 64 98 0 q 85 0 78 0 q 71 0 59 0 z"},"h":{"x_min":0,"x_max":576,"ha":576,"o":"m 65 0 l 80 318 q 82 365 86 558 l 89 667 q 100 666 107 666 q 116 666 126 667 l 113 381 q 125 404 133 417 q 141 431 154 445 q 168 458 183 469 q 199 479 218 486 q 237 494 263 499 q 290 503 318 503 q 361 503 399 494 q 437 485 464 464 q 491 443 501 413 q 511 383 511 354 q 511 344 511 326 q 510 299 507 253 l 499 55 q 498 36 497 0 q 484 0 478 0 q 470 0 458 0 q 463 63 466 127 l 473 246 q 477 301 477 341 q 477 388 459 417 q 442 446 401 461 q 360 476 315 476 q 285 476 255 469 q 228 463 208 452 q 190 443 176 430 q 161 416 149 397 q 136 375 127 348 q 119 323 114 281 q 111 249 107 153 l 104 0 q 91 0 84 0 q 78 0 65 0 z"},"z":{"x_min":0,"x_max":409,"ha":409,"o":"m 19 0 q 20 22 20 42 l 80 119 l 312 423 q 322 436 342 464 q 286 465 239 465 q 144 465 55 460 q 56 478 56 493 q 138 493 221 493 l 377 493 q 375 479 375 456 l 375 451 l 54 30 q 99 28 153 28 q 280 28 356 34 q 354 14 354 0 q 275 0 197 0 l 54 0 z"},"B":{"x_min":0,"x_max":555,"ha":555,"o":"m 73 0 l 83 161 l 97 580 q 98 604 98 626 l 97 667 l 198 666 l 304 667 q 354 667 380 662 q 406 658 427 646 q 448 635 465 616 q 481 597 490 571 q 499 544 499 516 q 499 492 493 469 q 487 447 475 427 q 463 407 447 392 q 430 376 415 368 q 399 359 375 349 q 399 341 414 334 q 429 328 444 318 q 459 309 471 295 q 483 282 492 266 q 500 250 505 229 q 510 208 510 186 q 510 140 491 103 q 473 65 437 40 q 400 15 359 7 q 318 0 268 0 l 150 0 z m 128 361 l 225 361 q 300 361 326 365 q 358 370 388 385 q 408 396 425 416 q 442 436 452 463 q 462 490 462 520 q 462 548 452 570 q 443 591 425 607 q 406 623 382 629 q 358 636 307 636 l 138 636 z m 116 31 l 258 31 q 325 31 355 39 q 385 46 413 64 q 440 82 456 116 q 473 151 473 189 q 473 226 458 254 q 442 283 416 301 q 389 319 358 325 q 327 330 285 330 l 126 330 z"},"K":{"x_min":0,"x_max":504,"ha":504,"o":"m 75 0 q 84 152 91 351 q 97 550 97 636 l 97 667 q 109 666 119 666 q 128 666 140 667 l 130 453 l 119 80 q 118 43 118 0 q 106 0 97 0 q 87 0 75 0 z m 132 354 q 196 419 283 513 q 370 606 421 667 q 433 666 447 666 q 460 666 472 667 l 178 356 l 499 0 q 481 0 470 0 q 459 0 442 0 l 413 37 q 402 50 391 62 q 381 75 347 114 z"},"R":{"x_min":0,"x_max":507,"ha":507,"o":"m 73 0 l 81 118 l 95 486 l 97 590 l 97 667 l 194 666 l 306 667 q 375 667 407 648 q 438 630 457 596 q 475 562 475 518 q 475 463 448 418 q 420 372 372 348 q 324 324 262 324 q 254 324 239 325 l 473 0 q 460 0 447 0 q 434 0 422 0 l 358 97 l 172 360 q 215 352 247 352 q 286 352 322 363 q 358 373 384 394 q 410 415 424 447 q 438 478 438 515 q 438 540 431 562 q 424 583 409 599 q 394 616 378 623 q 362 629 337 633 q 312 636 285 636 l 205 635 q 178 635 137 636 q 121 250 119 0 q 106 0 96 0 q 85 0 73 0 z"},"T":{"x_min":0,"x_max":471,"ha":471,"o":"m 204 0 l 211 122 l 230 636 q 109 636 20 632 q 22 652 22 667 q 140 666 265 666 l 404 667 l 478 667 q 476 647 476 632 q 417 636 296 636 l 268 636 l 248 99 q 248 87 248 76 l 248 0 q 235 0 226 0 q 216 0 204 0 z"},"P":{"x_min":0,"x_max":502,"ha":502,"o":"m 73 0 q 80 83 84 201 l 94 444 q 98 569 98 667 l 195 666 l 304 667 q 352 667 381 661 q 411 655 435 635 q 458 614 471 583 q 483 553 483 520 q 483 459 452 413 q 421 366 369 343 q 316 320 250 320 q 212 320 167 329 q 163 343 157 359 q 202 351 243 351 q 285 351 323 360 q 362 370 389 392 q 416 414 431 448 q 446 481 446 518 q 446 543 437 567 q 428 590 412 605 q 396 620 372 628 q 348 635 292 635 l 208 635 l 167 636 l 138 636 q 132 520 125 304 q 118 88 118 51 l 119 0 q 106 0 96 0 q 85 0 73 0 z"},"|":{"x_min":0,"x_max":504,"ha":504,"o":"m 235 667 l 269 667 l 269 -167 l 235 -167 z"},"t":{"x_min":0,"x_max":275,"ha":275,"o":"m 260 31 q 256 16 254 0 q 215 -10 182 -10 q 154 -10 132 -4 q 110 2 97 18 q 83 34 79 53 q 74 73 74 95 q 74 99 74 107 q 75 115 76 144 l 92 467 l 32 467 q 34 480 35 493 l 94 493 q 97 524 98 585 q 117 587 130 591 q 127 512 127 493 l 273 493 q 271 480 271 467 l 125 467 l 109 132 l 109 112 q 109 71 118 52 q 128 34 145 25 q 163 17 181 17 q 194 17 209 19 q 224 21 260 31 z"},"M":{"x_min":0,"x_max":824,"ha":824,"o":"m 59 0 l 69 90 l 98 449 l 113 667 q 130 666 144 666 q 159 666 176 667 l 197 601 q 207 574 236 491 l 364 132 l 399 38 l 657 608 q 666 628 681 667 q 698 666 713 666 q 728 666 745 667 l 740 384 q 739 288 739 242 q 739 89 742 0 q 729 0 719 0 q 708 0 696 0 l 704 430 q 706 507 706 567 l 706 631 l 623 449 l 424 0 q 413 0 398 0 q 384 0 373 0 l 160 589 l 145 628 l 139 571 q 137 547 132 474 l 106 115 q 105 92 104 69 q 103 45 103 0 q 90 0 81 0 q 71 0 59 0 z"},"g":{"x_min":0,"x_max":579,"ha":579,"o":"m 87 -178 q 152 -197 194 -203 q 236 -209 271 -209 q 312 -209 348 -199 q 381 -189 404 -173 q 424 -158 436 -139 q 449 -117 455 -84 q 462 -52 463 -14 q 467 46 468 123 q 458 99 451 86 q 444 72 432 57 q 419 42 402 31 q 385 19 364 9 q 342 0 315 -6 q 289 -11 261 -11 q 215 -11 177 0 q 138 12 107 40 q 77 68 61 112 q 45 155 45 204 q 45 270 69 330 q 92 391 135 430 q 179 469 235 486 q 292 503 358 503 q 425 503 520 486 l 515 430 q 514 414 512 388 l 501 165 l 496 -40 q 494 -77 486 -105 q 478 -135 460 -159 q 443 -183 417 -200 q 392 -216 352 -226 q 309 -237 255 -237 q 216 -237 178 -233 q 141 -229 91 -217 q 90 -197 87 -178 z m 481 463 q 435 472 407 474 q 379 476 357 476 q 301 476 253 463 q 206 451 166 416 q 126 380 104 325 q 82 270 82 211 q 82 154 102 108 q 123 62 165 39 q 208 16 260 16 q 295 16 325 24 q 349 30 369 43 q 390 56 409 77 q 428 99 443 128 q 457 157 463 187 q 472 229 475 296 z"},"j":{"x_min":0,"x_max":187,"ha":187,"o":"m 81 618 l 82 667 q 94 666 107 666 q 120 666 132 667 l 130 618 q 118 619 106 619 q 93 619 81 618 z m 121 493 l 111 279 l 103 62 q 97 -69 93 -101 q 88 -137 79 -159 q 72 -175 61 -188 q 48 -202 31 -213 q 13 -225 -7 -229 q -32 -236 -68 -236 q -116 -236 -178 -222 q -178 -207 -181 -185 q -117 -209 -62 -209 q -39 -209 -21 -204 q -2 -198 11 -189 q 25 -180 33 -170 q 41 -159 48 -140 q 57 -115 61 -77 q 65 -40 71 87 q 73 129 78 274 q 83 435 83 451 l 83 493 q 96 493 102 493 q 109 493 121 493 z"},"i":{"x_min":0,"x_max":187,"ha":187,"o":"m 83 618 l 84 667 q 97 666 109 666 q 122 666 134 667 l 133 618 q 121 619 108 619 q 95 619 83 618 z m 65 0 q 71 73 78 255 q 85 438 85 493 q 98 493 104 493 q 112 493 125 493 q 118 400 111 240 q 104 80 104 0 q 92 0 85 0 q 78 0 65 0 z"},"y":{"x_min":0,"x_max":445,"ha":445,"o":"m -39 -227 q -39 -211 -42 -189 q -26 -196 -17 -199 q -7 -202 7 -204 q 21 -207 33 -207 q 61 -207 85 -192 q 109 -178 134 -135 q 159 -91 192 -15 l 85 284 l 8 493 q 22 493 31 493 q 41 493 54 493 l 63 458 q 68 438 75 418 q 84 390 101 342 l 212 25 l 366 369 q 387 417 396 438 q 404 458 416 493 q 430 493 438 493 q 446 493 460 493 q 436 438 371 299 l 275 94 l 184 -107 q 163 -154 147 -176 q 134 -193 121 -205 q 110 -214 98 -220 q 83 -228 65 -232 q 46 -237 26 -237 q -5 -237 -39 -227 z"},"@":{"x_min":0,"x_max":790,"ha":790,"o":"m 560 487 q 551 439 546 403 l 527 257 q 523 238 523 226 q 523 206 534 196 q 544 187 559 187 q 571 187 583 191 q 596 195 615 209 q 634 222 652 246 q 669 270 682 297 q 694 325 701 356 q 708 387 708 419 q 708 469 691 514 q 674 558 636 589 q 599 620 549 633 q 499 646 444 646 q 369 646 303 622 q 238 598 189 545 q 141 493 115 422 q 89 351 89 275 q 89 218 107 168 q 125 118 162 84 q 199 50 252 35 q 304 20 363 20 q 395 20 427 24 q 459 28 489 40 q 519 51 553 75 q 559 63 568 52 q 525 21 473 5 q 421 -10 358 -10 q 291 -10 230 9 q 169 28 129 66 q 88 104 70 156 q 52 208 52 271 q 52 357 84 439 q 117 521 171 574 q 225 627 297 652 q 369 677 448 677 q 509 677 565 661 q 621 645 662 610 q 703 576 724 525 q 745 474 745 418 q 745 371 730 325 q 715 279 687 240 q 659 202 623 180 q 587 158 552 158 q 525 158 506 174 q 487 190 487 214 q 487 217 488 222 q 466 191 432 174 q 398 158 362 158 q 327 158 297 174 q 267 190 253 219 q 239 248 239 284 q 239 339 266 391 q 293 443 342 472 q 391 500 463 500 q 478 500 491 499 q 504 498 521 495 z m 519 460 q 487 468 459 468 q 407 468 366 447 q 325 425 301 380 q 278 335 278 287 q 278 260 288 237 q 298 214 319 202 q 339 190 366 190 q 395 190 420 202 q 446 215 466 241 q 486 268 495 300 q 504 332 519 460 z"},".":{"x_min":0,"x_max":195,"ha":195,"o":"m 59 0 q 60 20 60 32 q 61 43 61 53 q 79 53 88 53 q 99 53 116 53 q 115 39 114 25 q 114 12 113 0 q 96 0 86 0 q 76 0 59 0 z"},"p":{"x_min":0,"x_max":559,"ha":559,"o":"m 52 -217 l 58 -118 l 73 324 l 77 473 q 140 490 188 497 q 235 503 280 503 q 352 503 404 479 q 456 455 484 396 q 513 338 513 263 q 513 184 483 118 q 452 52 400 21 q 348 -10 284 -10 q 255 -10 228 -3 q 200 3 177 16 q 153 29 137 48 q 121 66 99 106 l 91 -152 l 91 -169 q 91 -186 92 -217 q 79 -216 72 -216 q 64 -216 52 -217 z m 114 442 q 110 401 107 324 q 104 247 104 222 q 104 179 113 143 q 122 106 148 76 q 174 46 210 31 q 246 16 285 16 q 340 16 384 46 q 428 76 452 134 q 476 192 476 261 q 476 330 451 380 q 426 431 384 453 q 341 476 287 476 q 205 476 114 442 z"},"X":{"x_min":0,"x_max":562,"ha":562,"o":"m -11 0 q 48 70 260 343 l 38 667 q 50 666 63 666 q 77 666 88 667 l 145 577 l 284 372 l 473 613 q 480 622 488 633 q 495 643 511 667 q 523 666 536 666 q 548 666 560 667 l 338 388 l 304 344 q 343 284 397 205 l 536 0 q 524 0 512 0 q 499 0 487 0 q 454 54 415 114 q 376 173 279 313 l 180 188 l 72 46 q 60 29 39 0 q 26 0 14 0 q 0 0 -11 0 z"},"*":{"x_min":0,"x_max":508,"ha":508,"o":"m 133 382 l 234 501 l 92 541 q 101 561 106 580 l 244 525 l 245 677 q 257 676 264 676 q 272 676 284 677 l 269 525 l 413 577 q 417 555 423 540 l 275 500 l 365 384 q 345 371 331 359 l 255 486 l 165 359 q 152 370 133 382 z"},"Y":{"x_min":0,"x_max":482,"ha":482,"o":"m 199 0 l 214 211 l 219 302 l 153 418 l 9 667 q 21 666 31 666 q 41 666 53 667 l 74 627 q 80 615 114 556 l 240 336 l 357 511 l 429 623 q 438 637 456 667 q 468 666 478 666 q 488 666 500 667 l 254 300 q 254 276 252 255 l 246 129 q 245 102 244 68 l 243 0 q 230 0 221 0 q 211 0 199 0 z"},"c":{"x_min":0,"x_max":458,"ha":458,"o":"m 401 39 q 396 19 395 2 q 333 -10 279 -10 q 228 -10 184 4 q 140 18 108 50 q 76 81 61 129 q 45 176 45 229 q 45 300 70 364 q 94 429 147 466 q 200 503 290 503 q 356 503 416 485 q 416 469 419 451 q 368 467 339 471 q 311 476 287 476 q 235 476 196 456 q 156 437 130 400 q 104 364 93 320 q 82 275 82 230 q 82 182 94 140 q 106 98 133 71 q 160 45 199 31 q 238 17 281 17 q 305 17 332 22 q 359 26 401 39 z"},"!":{"x_min":0,"x_max":239,"ha":239,"o":"m 94 102 l 103 424 l 107 607 q 108 645 108 667 q 121 666 130 666 q 140 666 152 667 l 147 596 l 125 102 q 117 103 109 103 q 101 103 94 102 z m 81 0 q 82 20 82 32 q 83 43 83 53 q 101 53 110 53 q 121 53 138 53 q 137 39 136 25 q 136 12 135 0 q 118 0 108 0 q 98 0 81 0 z"},"/":{"x_min":0,"x_max":402,"ha":402,"o":"m -72 -217 l 70 85 l 312 608 l 338 667 q 350 666 358 666 q 367 666 379 667 l 18 -107 l -31 -217 q -43 -216 -51 -216 q -61 -216 -72 -217 z"},"[":{"x_min":0,"x_max":297,"ha":297,"o":"m 130 667 q 163 666 200 666 q 237 666 270 667 q 268 653 268 640 q 246 641 218 641 q 191 641 167 640 l 151 224 l 138 -190 q 163 -190 189 -190 q 215 -190 239 -190 q 238 -203 238 -217 q 208 -216 168 -216 q 129 -216 99 -217 l 117 228 z"},"6":{"x_min":0,"x_max":536,"ha":536,"o":"m 197 369 q 260 381 299 381 q 352 381 393 360 q 435 338 457 296 q 479 253 479 201 q 479 138 448 87 q 417 35 369 13 q 320 -10 258 -10 q 215 -10 175 4 q 134 18 107 45 q 80 73 68 110 q 56 146 56 183 q 56 219 64 262 q 72 305 99 367 q 125 430 168 498 q 210 566 286 667 q 298 666 311 666 q 324 666 336 667 q 286 605 260 570 q 220 516 186 456 q 149 393 126 336 q 107 291 100 257 q 92 222 92 186 q 92 133 110 99 q 129 64 167 42 q 204 19 256 19 q 310 19 353 42 q 396 65 417 108 q 438 151 438 204 q 438 246 422 281 q 405 316 370 335 q 335 354 291 354 q 270 354 247 350 q 224 347 182 335 q 192 355 197 369 z"},"r":{"x_min":0,"x_max":314,"ha":314,"o":"m 59 0 q 64 103 70 242 q 75 381 75 449 l 75 493 q 84 493 93 493 q 102 493 111 493 l 106 401 q 123 434 137 451 q 151 468 170 480 q 189 491 214 497 q 239 503 267 503 q 287 503 307 499 q 307 482 309 465 q 276 474 252 474 q 229 474 210 467 q 191 461 175 449 q 159 437 143 415 q 127 394 120 370 q 110 342 106 302 q 101 240 100 160 q 98 52 98 0 q 85 0 78 0 q 71 0 59 0 z"},"2":{"x_min":0,"x_max":536,"ha":536,"o":"m 64 0 q 65 13 65 25 l 65 37 q 133 107 184 162 q 254 238 297 288 q 339 339 371 382 q 403 424 421 459 q 434 484 438 500 q 442 517 442 534 q 442 561 431 582 q 420 603 396 620 q 371 636 342 643 q 312 649 282 649 q 208 649 98 622 q 102 640 104 659 q 190 677 277 677 q 317 677 355 668 q 393 660 421 641 q 449 623 463 596 q 478 570 478 538 q 478 518 474 500 q 470 483 463 467 q 451 438 428 404 q 406 370 352 304 q 297 237 238 172 q 179 107 101 28 q 147 27 192 27 l 248 27 l 310 28 l 360 28 q 382 29 400 30 l 422 31 q 427 31 453 33 q 451 19 451 0 q 379 0 262 0 l 135 0 z"},"{":{"x_min":0,"x_max":383,"ha":383,"o":"m 166 224 q 177 218 184 214 q 190 209 197 200 q 203 192 208 182 q 212 171 215 156 q 217 142 217 121 q 217 80 212 14 q 208 -53 208 -80 q 208 -110 210 -125 q 212 -139 217 -150 q 221 -161 229 -168 q 236 -176 247 -181 q 258 -186 271 -188 q 283 -189 298 -190 q 296 -205 296 -217 q 266 -217 246 -211 q 220 -205 205 -191 q 190 -178 182 -156 q 174 -133 174 -84 q 174 -57 179 23 q 184 103 184 129 q 184 146 180 160 q 177 174 172 182 q 167 190 158 197 q 150 204 143 207 q 136 210 126 212 q 128 224 129 236 q 144 241 156 250 q 169 259 176 269 q 183 279 187 295 q 190 309 191 337 q 192 348 193 407 l 194 497 q 195 546 197 562 q 200 583 206 599 q 210 612 217 622 q 224 632 233 640 q 243 648 254 653 q 268 660 285 663 q 300 667 329 667 q 327 653 326 640 q 300 639 285 634 q 270 628 261 622 q 252 615 246 606 q 238 593 234 576 q 230 560 229 522 q 227 485 227 437 q 227 424 226 386 q 226 348 224 323 q 222 298 218 283 q 213 268 207 257 q 201 247 192 240 q 184 232 166 224 z"},"9":{"x_min":0,"x_max":536,"ha":536,"o":"m 212 0 q 297 113 350 204 q 402 294 423 360 q 444 426 444 479 q 444 513 433 545 q 422 578 400 603 q 377 627 346 638 q 315 649 280 649 q 229 649 188 627 q 146 605 123 567 q 101 528 101 481 q 101 452 108 424 q 116 396 135 374 q 155 352 188 341 q 222 329 258 329 q 279 329 305 333 q 332 336 377 350 q 371 334 366 314 q 321 305 298 303 q 275 301 257 301 q 201 301 154 321 q 107 341 84 381 q 61 421 61 474 q 61 533 89 580 q 117 626 168 652 q 219 677 280 677 q 324 677 365 662 q 405 648 432 620 q 458 592 470 555 q 482 518 482 482 q 482 451 474 410 q 467 369 442 310 q 418 251 382 188 q 347 126 264 0 q 252 0 238 0 q 224 0 212 0 z"}," ":{"x_min":0,"x_max":250,"ha":250,"o":""},"I":{"x_min":0,"x_max":208,"ha":208,"o":"m 73 0 l 83 196 l 93 489 l 95 591 q 96 631 96 667 q 108 666 118 666 q 127 666 140 667 l 131 490 l 119 126 l 117 0 q 104 0 95 0 q 85 0 73 0 z"},"H":{"x_min":0,"x_max":701,"ha":701,"o":"m 73 0 q 84 210 90 393 q 96 576 96 667 q 109 666 118 666 q 126 666 139 667 l 125 354 l 580 354 l 589 600 q 590 620 590 667 q 603 666 611 666 q 620 666 632 667 q 614 364 607 0 q 595 0 585 0 q 576 0 563 0 q 576 170 579 325 l 125 325 l 117 85 l 116 0 q 103 0 94 0 q 85 0 73 0 z"},"4":{"x_min":0,"x_max":536,"ha":536,"o":"m 324 0 q 327 42 329 84 q 332 126 336 255 l 193 255 l 55 253 q 57 270 57 293 q 110 363 271 582 q 302 625 331 667 q 348 666 361 666 q 374 666 391 667 q 381 499 373 284 l 463 284 q 475 284 487 286 q 486 273 486 259 l 486 253 q 445 255 371 255 q 370 238 368 152 q 366 66 366 44 q 366 29 367 0 q 354 0 346 0 q 336 0 324 0 z m 337 284 q 339 319 340 344 l 349 585 l 349 638 l 88 284 z"},"~":{"x_min":0,"x_max":671,"ha":671,"o":"m 121 273 l 97 289 q 130 348 161 368 q 192 387 225 387 q 247 387 273 378 q 299 368 345 344 q 390 320 409 314 q 429 308 447 308 q 477 308 500 326 q 524 344 550 389 l 574 375 q 557 342 536 319 q 515 296 491 286 q 467 276 444 276 q 428 276 409 282 q 390 288 378 292 q 367 297 306 329 q 275 345 257 350 q 238 356 223 356 q 194 356 170 336 q 145 317 121 273 z"},"D":{"x_min":0,"x_max":722,"ha":722,"o":"m 73 0 l 87 232 l 100 612 q 101 633 101 667 l 208 666 l 342 667 q 437 667 493 652 q 550 637 595 592 q 639 546 658 488 q 676 430 676 363 q 676 284 648 210 q 619 136 563 85 q 507 35 437 18 q 366 0 283 0 l 179 0 z m 115 31 q 201 29 251 29 q 300 29 352 34 q 404 39 445 52 q 486 64 526 98 q 565 132 590 173 q 615 215 627 265 q 640 316 640 368 q 640 417 628 463 q 620 497 603 525 q 583 558 558 581 q 533 604 506 615 q 479 626 438 631 q 400 636 351 637 l 234 637 l 140 636 z"},"^":{"x_min":0,"x_max":504,"ha":504,"o":"m 81 386 l 42 386 l 230 667 l 274 667 l 462 386 l 422 386 l 251 641 z"},"0":{"x_min":0,"x_max":536,"ha":536,"o":"m 287 677 q 323 677 354 666 q 384 655 410 629 q 437 604 455 563 q 472 522 480 474 q 487 425 487 372 q 487 299 474 227 q 460 154 433 98 q 405 42 360 16 q 316 -10 259 -10 q 226 -10 196 -1 q 167 7 138 31 q 110 54 91 93 q 72 133 63 182 q 55 230 55 281 q 55 353 66 422 q 74 471 87 510 q 100 548 117 579 q 135 610 162 633 q 189 656 221 667 q 252 677 287 677 z m 286 649 q 240 649 200 620 q 160 592 135 536 q 111 481 102 415 q 93 348 93 281 q 93 228 101 183 q 108 138 129 99 q 150 61 185 39 q 219 18 260 18 q 306 18 342 43 q 379 69 403 123 q 428 178 438 244 q 447 310 447 376 q 447 452 435 500 q 423 549 404 580 q 384 611 354 630 q 325 649 286 649 z"},"F":{"x_min":0,"x_max":498,"ha":498,"o":"m 73 0 l 82 170 l 92 497 l 94 594 q 94 629 94 667 q 196 666 289 666 l 459 667 q 457 647 457 632 q 415 635 363 636 q 310 636 267 636 l 132 636 l 124 355 l 228 354 q 360 354 425 355 q 423 341 422 322 l 335 323 q 284 324 254 324 q 191 324 122 322 q 116 112 116 0 q 104 0 94 0 q 85 0 73 0 z"},"`":{"x_min":0,"x_max":500,"ha":500,"o":"m 283 555 q 279 556 273 556 q 267 556 263 555 q 247 584 235 604 l 183 691 q 195 691 211 691 q 228 691 240 691 z"},"k":{"x_min":0,"x_max":417,"ha":417,"o":"m 63 0 q 70 100 74 222 l 82 471 q 86 597 86 667 q 99 666 106 666 q 113 666 126 667 l 120 569 l 104 106 l 102 0 q 89 0 83 0 q 76 0 63 0 z m 113 274 l 246 401 l 288 442 q 297 453 307 463 q 316 473 335 493 q 347 493 360 493 q 374 493 385 493 l 213 330 q 189 308 155 274 l 332 83 l 411 0 q 399 0 387 0 q 374 0 362 0 l 259 116 z"},"u":{"x_min":0,"x_max":569,"ha":569,"o":"m 489 0 q 479 0 471 0 q 463 0 453 0 l 457 106 q 446 81 439 70 q 432 59 420 47 q 409 35 392 24 q 375 13 353 5 q 330 -3 305 -6 q 281 -10 257 -10 q 215 -10 178 0 q 142 9 114 32 q 86 55 76 85 q 65 116 65 154 q 65 184 72 302 q 79 419 79 493 q 91 493 98 493 q 104 493 117 493 q 113 451 105 319 q 98 187 98 153 q 98 116 107 90 q 117 64 141 48 q 166 31 196 24 q 227 17 259 17 q 292 17 323 26 q 354 34 375 47 q 396 60 411 78 q 429 100 442 128 q 453 153 458 190 q 464 227 468 323 q 471 416 472 493 q 485 493 491 493 q 498 493 510 493 l 492 151 l 490 78 q 489 32 489 0 z"},"]":{"x_min":0,"x_max":297,"ha":297,"o":"m 155 -217 q 122 -216 85 -216 q 48 -216 15 -217 q 17 -204 18 -190 q 40 -190 67 -190 q 93 -190 118 -190 l 142 456 l 147 640 q 123 641 96 641 q 70 641 45 640 q 47 653 47 667 q 78 666 117 666 q 155 666 186 667 l 168 222 z"},"U":{"x_min":0,"x_max":704,"ha":704,"o":"m 95 667 q 107 666 117 666 q 127 666 139 667 l 117 266 l 116 230 l 116 222 q 116 163 131 126 q 146 88 179 64 q 213 39 253 30 q 292 20 339 20 q 384 20 426 29 q 457 36 483 50 q 504 62 521 79 q 539 96 551 117 q 562 139 568 163 q 578 210 581 278 l 590 479 q 595 592 595 667 q 608 666 617 666 q 625 666 638 667 l 625 444 l 617 249 q 613 184 603 142 q 596 116 583 93 q 570 72 552 56 q 532 38 504 23 q 473 8 438 0 q 391 -10 341 -10 q 286 -10 242 1 q 203 10 170 30 q 137 50 117 76 q 100 97 89 131 q 79 165 79 212 q 79 255 82 313 l 93 574 q 95 620 95 667 z"},"o":{"x_min":0,"x_max":562,"ha":562,"o":"m 288 503 q 333 503 375 491 q 418 478 450 448 q 483 417 500 368 q 517 318 517 263 q 517 204 499 149 q 481 94 448 57 q 415 21 370 5 q 325 -10 275 -10 q 240 -10 206 -2 q 172 6 142 25 q 113 44 91 75 q 68 105 57 146 q 45 188 45 233 q 45 312 75 377 q 104 442 162 473 q 221 503 288 503 z m 287 476 q 229 476 179 448 q 129 419 105 361 q 82 303 82 234 q 82 185 95 142 q 109 99 139 70 q 168 40 203 29 q 237 17 275 17 q 319 17 357 31 q 395 45 424 79 q 453 112 467 160 q 480 208 480 263 q 480 313 467 357 q 454 401 425 428 q 397 455 361 465 q 325 476 287 476 z"},"N":{"x_min":0,"x_max":726,"ha":726,"o":"m 73 0 l 84 192 l 98 588 l 99 667 q 111 666 128 666 q 146 666 158 667 q 183 627 199 603 q 215 578 266 505 l 517 144 q 555 89 594 35 l 615 591 l 617 667 q 629 666 637 666 q 645 666 657 667 l 648 513 l 632 96 l 630 0 q 613 0 601 0 q 588 0 571 0 l 482 133 l 172 578 l 136 627 q 135 603 134 576 l 116 119 l 114 0 q 101 0 93 0 q 85 0 73 0 z"},"+":{"x_min":0,"x_max":536,"ha":536,"o":"m 59 327 q 61 346 61 359 q 109 358 183 357 l 255 357 l 258 469 q 260 534 260 556 q 269 555 277 555 q 286 555 294 556 q 292 518 285 357 l 334 357 l 484 359 q 481 342 481 327 q 433 329 358 330 l 284 330 l 281 189 q 280 151 280 130 q 271 131 262 131 q 253 131 245 130 q 247 162 254 330 l 198 330 l 150 329 z"},"G":{"x_min":0,"x_max":730,"ha":730,"o":"m 444 367 q 534 367 576 367 l 661 367 l 653 213 l 647 24 q 571 6 510 -2 q 448 -10 405 -10 q 331 -10 262 11 q 194 32 146 74 q 98 116 75 179 q 52 242 52 312 q 52 393 82 466 q 112 538 165 586 q 217 634 286 655 q 355 677 435 677 q 480 677 527 671 q 573 666 636 652 q 637 627 640 607 q 570 630 521 638 q 472 646 429 646 q 357 646 292 624 q 227 602 181 557 q 136 512 113 446 q 89 380 89 310 q 89 244 110 188 q 130 131 172 95 q 213 59 273 39 q 333 20 404 20 q 428 20 457 23 q 486 25 515 30 q 543 35 562 39 q 580 44 610 53 l 622 337 l 563 337 q 540 337 517 336 l 443 333 q 444 349 444 362 z"},"q":{"x_min":0,"x_max":555,"ha":555,"o":"m 434 -217 l 439 -103 l 442 -53 l 442 -34 l 447 121 q 429 84 414 64 q 399 45 374 28 q 349 10 317 0 q 285 -10 251 -10 q 208 -10 167 7 q 127 23 99 53 q 72 83 59 125 q 45 167 45 211 q 45 277 70 337 q 94 397 139 436 q 185 476 239 490 q 294 503 359 503 q 374 503 388 503 q 402 502 415 500 q 429 499 453 495 l 496 488 l 491 425 q 490 404 489 382 l 479 74 l 473 -217 q 460 -216 454 -216 q 446 -216 434 -217 z m 455 461 q 415 471 392 474 q 369 476 350 476 q 269 476 207 444 q 145 412 114 349 q 82 285 82 208 q 82 156 101 113 q 119 70 160 43 q 201 17 252 17 q 280 17 305 25 q 331 32 352 46 q 374 61 392 83 q 411 104 425 135 q 439 165 444 196 q 450 228 452 318 q 455 408 455 461 z"},"d":{"x_min":0,"x_max":564,"ha":564,"o":"m 483 0 q 471 0 464 0 q 458 0 445 0 l 452 124 q 440 96 430 79 q 420 62 405 47 q 390 31 368 18 q 346 5 317 -2 q 288 -10 257 -10 q 210 -10 169 7 q 127 24 99 55 q 70 87 58 128 q 45 169 45 215 q 45 277 68 335 q 91 393 135 432 q 179 471 234 487 q 290 503 351 503 q 401 503 461 493 q 463 539 463 582 q 463 619 462 667 q 475 666 482 666 q 490 666 502 667 q 497 575 494 475 l 487 239 q 483 103 483 60 z m 459 459 q 425 470 399 473 q 374 476 351 476 q 296 476 247 460 q 197 445 160 410 q 123 375 102 321 q 82 267 82 215 q 82 157 104 110 q 126 62 167 40 q 208 17 258 17 q 288 17 313 24 q 337 31 357 44 q 377 57 395 78 q 413 99 426 128 q 439 157 446 191 q 452 225 455 296 z"},"1":{"x_min":0,"x_max":536,"ha":536,"o":"m 253 0 q 260 80 264 188 l 272 426 q 278 556 278 626 q 264 617 222 589 q 225 609 225 627 q 245 639 288 667 q 296 666 304 666 q 312 666 319 667 l 298 195 l 296 107 q 295 86 295 65 q 295 40 296 0 q 284 0 275 0 q 266 0 253 0 z"},"5":{"x_min":0,"x_max":536,"ha":536,"o":"m 80 8 q 78 28 75 43 q 122 29 150 25 q 179 20 210 20 q 256 20 300 32 q 343 44 375 71 q 406 98 423 136 q 440 174 440 214 q 440 251 425 281 q 409 311 381 328 q 353 345 319 351 q 286 356 249 356 q 184 356 101 341 l 127 626 q 129 640 132 667 q 254 666 311 666 l 471 667 q 469 652 469 638 l 469 633 l 438 635 q 429 636 406 637 l 295 640 q 254 640 229 640 l 166 640 l 140 373 q 184 380 210 382 q 237 384 261 384 q 328 384 377 366 q 426 349 453 307 q 480 266 480 214 q 480 154 445 100 q 411 46 346 18 q 282 -10 208 -10 q 192 -10 165 -7 q 138 -5 122 -2 q 105 1 80 8 z"}}}
